<svg version="1.2" baseProfile="tiny-ps" xmlns="http://www.w3.org/2000/svg" viewBox="0 0 1032 273" width="1032" height="273">
	<title>logo-02-ai</title>
	<style>
		tspan { white-space:pre }
		.s0 { fill: #ffffff } 
	</style>
	<g id="Layer 1">
		<path id="&lt;Compound Path&gt;" class="s0" d="m589.77 15.86l32.87 3.23c2.14 0.2 3.22-2.15 3.22 0v224.61c0 2.15-1.07 3.23-3.22 3.23h-32.87c-2.15 0-3.22-1.08-3.22-3.23v-224.61c0-2.15 1.09-3.44 3.22-3.23zm100.55 65.74c1.29-1.72 3.12-2.58 5.48-2.58h41.9c1.07 0 1.61 0.32 1.61 0.97c0.22 0.64-0.11 1.39-0.97 2.25l-60.26 68.64c-0.43 0.43-0.97 0.97-1.62 1.62c-0.43 0.64-0.64 1.18-0.64 1.61c0 0.43 0.21 1.07 0.64 1.93c0.65 0.86 1.19 1.51 1.62 1.94l63.81 86.69c1.08 1.5 0.75 2.26-0.97 2.26h-41.57c-2.15 0-3.98-0.97-5.48-2.91l-56.07-76.05c-1.51-1.94-2.8-4.09-3.87-6.45c-1.08-2.58-1.62-5.05-1.62-7.41c0-1.72 0.54-3.76 1.62-6.12c1.07-2.58 2.47-4.94 4.19-7.09l52.2-59.3z" />
		<path id="&lt;Path&gt;" class="s0" d="m78.35 19.08v162.58c0 14.05 10.97 25.01 25.01 25.01h31.23c14.04 0 25.01-10.97 25.01-25.01v-37.57c0-14.04-10.97-25.01-25.01-25.01h-56.24l21.88-39.45h34.36c35.37 0 64.46 29.09 64.46 64.46v37.57c0 35.37-29.09 64.47-64.46 64.47h-31.23c-35.37 0-64.46-29.09-64.46-64.47v-162.58h39.45z" />
		<path id="&lt;Compound Path&gt;" fill-rule="evenodd" class="s0" d="m315.55 79.63v0.13c34.75 0.74 63.12 29.42 63.12 64.33v37.57c0 34.91-28.37 63.59-63.12 64.34v0.13h-31.36c-35.37 0-64.46-29.09-64.46-64.47v-37.57c0-35.37 29.09-64.46 64.46-64.46h31.36zm-56.37 64.46v37.57c0 14.05 10.96 25.01 25.01 25.01h30.02c14.05 0 25.01-10.97 25.01-25.01v-37.57c0-14.04-10.96-25-25.01-25h-30.02c-14.05 0-25.01 10.96-25.01 25z" />
		<path id="&lt;Compound Path&gt;" fill-rule="evenodd" class="s0" d="m498.61 79.63v0.13c34.75 0.74 63.12 29.42 63.12 64.33v37.57c0 34.91-28.37 63.59-63.12 64.34v0.13h-31.36c-35.37 0-64.46-29.09-64.46-64.47v-37.57c0-35.37 29.09-64.46 64.46-64.46h31.36zm-56.37 64.46v37.57c0 14.05 10.96 25.01 25.01 25.01h30.03c14.05 0 25.01-10.97 25.01-25.01v-37.57c0-14.04-10.96-25-25.01-25h-30.03c-14.05 0-25.01 10.96-25.01 25z" />
		<path id="&lt;Path&gt;" class="s0" d="m833.42 79.63c16.84 0 32.16 6.82 43.55 17.7c11.39-10.88 26.7-17.7 43.55-17.7h13.97c32.91 0 60.03 27.11 60.03 60.02v106.48h-39.46v-106.48c0-11.59-8.98-20.56-20.57-20.56h-13.97c-13.39 0-23.82 10.43-23.82 23.81v103.23h-39.45v-103.23c0-13.38-10.43-23.81-23.82-23.81h-34.54v127.04h-39.46v-146.77c0-10.89 8.84-19.73 19.73-19.73h54.27z" />
	</g>
</svg>