<?xml version="1.0" encoding="UTF-8" standalone="no"?>
<svg
   xmlns:dc="http://purl.org/dc/elements/1.1/"
   xmlns:cc="http://creativecommons.org/ns#"
   xmlns:rdf="http://www.w3.org/1999/02/22-rdf-syntax-ns#"
   xmlns:svg="http://www.w3.org/2000/svg"
   xmlns="http://www.w3.org/2000/svg"
   xmlns:sodipodi="http://sodipodi.sourceforge.net/DTD/sodipodi-0.dtd"
   xmlns:inkscape="http://www.inkscape.org/namespaces/inkscape"
   version="1.1"
   id="svg2"
   xml:space="preserve"
   width="1023.932"
   height="333.33334"
   viewBox="0 0 1023.932 333.33334"
   sodipodi:docname="logo-01.ai"><metadata
     id="metadata8"><rdf:RDF><cc:Work
         rdf:about=""><dc:format>image/svg+xml</dc:format><dc:type
           rdf:resource="http://purl.org/dc/dcmitype/StillImage" /></cc:Work></rdf:RDF></metadata><defs
     id="defs6"><clipPath
       clipPathUnits="userSpaceOnUse"
       id="clipPath18"><path
         d="M 0,250 H 767.949 V 0 H 0 Z"
         id="path16" /></clipPath><linearGradient
       x1="0"
       y1="0"
       x2="1"
       y2="0"
       gradientUnits="userSpaceOnUse"
       gradientTransform="matrix(37.156692,-53.783894,-53.783894,-37.156692,142.93988,152.80151)"
       spreadMethod="pad"
       id="linearGradient76"><stop
         style="stop-opacity:1;stop-color:#00c7ff"
         offset="0"
         id="stop68" /><stop
         style="stop-opacity:1;stop-color:#00c7ff"
         offset="0.23406596"
         id="stop70" /><stop
         style="stop-opacity:1;stop-color:#0073ff"
         offset="0.92815"
         id="stop72" /><stop
         style="stop-opacity:1;stop-color:#0073ff"
         offset="1"
         id="stop74" /></linearGradient><linearGradient
       x1="0"
       y1="0"
       x2="1"
       y2="0"
       gradientUnits="userSpaceOnUse"
       gradientTransform="matrix(-56.087425,0,0,56.087425,176.83897,80.269646)"
       spreadMethod="pad"
       id="linearGradient104"><stop
         style="stop-opacity:1;stop-color:#0072ff"
         offset="0"
         id="stop92" /><stop
         style="stop-opacity:1;stop-color:#0072ff"
         offset="0.100356"
         id="stop94" /><stop
         style="stop-opacity:1;stop-color:#d42aff"
         offset="0.4454385"
         id="stop96" /><stop
         style="stop-opacity:1;stop-color:#d42aff"
         offset="0.592699"
         id="stop98" /><stop
         style="stop-opacity:1;stop-color:#fe1560"
         offset="0.942247"
         id="stop100" /><stop
         style="stop-opacity:1;stop-color:#fe1560"
         offset="1"
         id="stop102" /></linearGradient><linearGradient
       x1="818.06799"
       y1="1328.14"
       x2="819.698"
       y2="1054.36"
       gradientUnits="userSpaceOnUse"
       gradientTransform="matrix(0.382268,0,0,-0.382268,-198.65598,592.55716)"
       spreadMethod="pad"
       id="linearGradient124"><stop
         style="stop-opacity:1;stop-color:#fe016a"
         offset="0"
         id="stop120" /><stop
         style="stop-opacity:1;stop-color:#ff7f2a"
         offset="1"
         id="stop122" /></linearGradient><linearGradient
       x1="0"
       y1="0"
       x2="1"
       y2="0"
       gradientUnits="userSpaceOnUse"
       gradientTransform="matrix(-129.63283,-21.688568,-21.688568,129.63283,217.98769,60.880276)"
       spreadMethod="pad"
       id="linearGradient150"><stop
         style="stop-opacity:1;stop-color:#0072ff"
         offset="0"
         id="stop140" /><stop
         style="stop-opacity:1;stop-color:#0072ff"
         offset="0.0152294"
         id="stop142" /><stop
         style="stop-opacity:1;stop-color:#d42aff"
         offset="0.377718"
         id="stop144" /><stop
         style="stop-opacity:1;stop-color:#ff0066"
         offset="0.881736"
         id="stop146" /><stop
         style="stop-opacity:1;stop-color:#ff0066"
         offset="1"
         id="stop148" /></linearGradient><linearGradient
       x1="753.698"
       y1="1421.03"
       x2="703.995"
       y2="1192.0699"
       gradientUnits="userSpaceOnUse"
       gradientTransform="matrix(0.382268,0,0,-0.382268,-198.65536,592.55719)"
       spreadMethod="pad"
       id="linearGradient170"><stop
         style="stop-opacity:1;stop-color:#fe016a"
         offset="0"
         id="stop166" /><stop
         style="stop-opacity:1;stop-color:#ff7f2a"
         offset="1"
         id="stop168" /></linearGradient><linearGradient
       x1="945.17902"
       y1="1073.92"
       x2="1068.76"
       y2="1339.03"
       gradientUnits="userSpaceOnUse"
       gradientTransform="matrix(0.382268,0,0,-0.382268,-198.65622,592.55713)"
       spreadMethod="pad"
       id="linearGradient190"><stop
         style="stop-opacity:1;stop-color:#00c6ff"
         offset="0"
         id="stop186" /><stop
         style="stop-opacity:1;stop-color:#0072ff"
         offset="1"
         id="stop188" /></linearGradient><clipPath
       clipPathUnits="userSpaceOnUse"
       id="clipPath200"><path
         d="M 0,250 H 767.949 V 0 H 0 Z"
         id="path198" /></clipPath></defs><sodipodi:namedview
     pagecolor="#ffffff"
     bordercolor="#666666"
     borderopacity="1"
     objecttolerance="10"
     gridtolerance="10"
     guidetolerance="10"
     inkscape:pageopacity="0"
     inkscape:pageshadow="2"
     inkscape:window-width="640"
     inkscape:window-height="480"
     id="namedview4" /><g
     id="g10"
     inkscape:groupmode="layer"
     inkscape:label="logo-01"
     transform="matrix(1.3333333,0,0,-1.3333333,0,333.33333)"><g
       id="g12"><g
         id="g14"
         clip-path="url(#clipPath18)"><g
           id="g20"
           transform="translate(571.0591,107.5509)"><path
             d="m 0,0 c -0.86,-1.074 -1.559,-2.254 -2.094,-3.543 -0.539,-1.183 -0.809,-2.203 -0.809,-3.062 0,-1.18 0.27,-2.418 0.809,-3.707 0.535,-1.18 1.18,-2.254 1.934,-3.223 l 28.035,-38.023 c 0.75,-0.969 1.664,-1.453 2.738,-1.453 h 20.785 c 0.86,0 1.024,0.378 0.485,1.128 L 19.98,-8.539 c -0.215,0.215 -0.484,0.539 -0.808,0.969 -0.215,0.43 -0.321,0.75 -0.321,0.965 0,0.215 0.106,0.484 0.321,0.804 0.324,0.325 0.593,0.594 0.808,0.809 l 30.129,34.32 c 0.43,0.43 0.594,0.805 0.485,1.125 0,0.325 -0.27,0.485 -0.805,0.485 H 28.84 c -1.18,0 -2.094,-0.43 -2.739,-1.289 z M -25.781,60.907 V -51.398 c 0,-1.074 0.535,-1.613 1.609,-1.613 h 16.437 c 1.075,0 1.61,0.539 1.61,1.613 V 60.907 c 0,1.074 -0.539,-0.102 -1.61,0 l -16.437,1.613 c -1.066,0.105 -1.609,-0.539 -1.609,-1.613"
             style="fill:#161650;fill-opacity:1;fill-rule:nonzero;stroke:none"
             id="path22" /></g><g
           id="g24"
           transform="translate(271.449,168.4581)"><path
             d="m 0,0 v -81.29 c 0,-17.687 14.547,-32.234 32.231,-32.234 h 15.617 c 17.684,0 32.231,14.547 32.231,32.234 v 18.786 c 0,17.683 -14.547,32.23 -32.231,32.23 H 30.668 L 19.727,-50 h 28.121 c 7.02,0 12.504,-5.485 12.504,-12.504 V -81.29 c 0,-7.023 -5.484,-12.507 -12.504,-12.507 H 32.231 c -7.02,0 -12.504,5.484 -12.504,12.507 l 0,81.29 z"
             style="fill:#161650;fill-opacity:1;fill-rule:nonzero;stroke:none"
             id="path26" /></g><g
           id="g28"
           transform="translate(394.0941,138.1837)"><path
             d="m 0,0 c -17.684,0 -32.23,-14.547 -32.23,-32.23 v -18.786 c 0,-17.687 14.546,-32.234 32.23,-32.234 h 15.68 v 0.066 c 17.375,0.372 31.562,14.711 31.562,32.168 v 18.786 c 0,17.453 -14.187,31.796 -31.562,32.164 l 0,0.066 z m 0,-19.73 h 15.012 c 7.023,0 12.504,-5.481 12.504,-12.5 v -18.786 c 0,-7.023 -5.481,-12.507 -12.504,-12.507 H 0 c -7.023,0 -12.504,5.484 -12.504,12.507 v 18.786 c 0,7.019 5.481,12.5 12.504,12.5"
             style="fill:#161650;fill-opacity:1;fill-rule:nonzero;stroke:none"
             id="path30" /></g><g
           id="g32"
           transform="translate(485.625,138.1837)"><path
             d="m 0,0 c -17.683,0 -32.23,-14.547 -32.23,-32.23 v -18.786 c 0,-17.687 14.547,-32.234 32.23,-32.234 h 15.68 v 0.066 c 17.375,0.372 31.562,14.711 31.562,32.168 v 18.786 c 0,17.453 -14.187,31.796 -31.562,32.164 l 0,0.066 z m 0,-19.73 h 15.016 c 7.023,0 12.504,-5.481 12.504,-12.5 v -18.786 c 0,-7.023 -5.481,-12.507 -12.504,-12.507 H 0 c -7.023,0 -12.504,5.484 -12.504,12.507 v 18.786 c 0,7.019 5.481,12.5 12.504,12.5"
             style="fill:#161650;fill-opacity:1;fill-rule:nonzero;stroke:none"
             id="path34" /></g><g
           id="g36"
           transform="translate(641.578,138.1837)"><path
             d="M 0,0 C -5.449,0 -9.867,-4.418 -9.867,-9.863 V -83.25 H 9.864 v 63.52 h 17.269 c 6.695,0 11.91,-5.215 11.91,-11.907 V -83.25 H 58.77 v 51.613 c 0,6.692 5.215,11.907 11.91,11.907 h 6.984 c 5.797,0 10.286,-4.485 10.286,-10.282 V -83.25 h 19.73 v 53.238 C 107.68,-13.555 94.121,0 77.664,0 H 70.68 C 62.258,0 54.602,-3.41 48.907,-8.851 43.215,-3.41 35.555,0 27.133,0 Z"
             style="fill:#161650;fill-opacity:1;fill-rule:nonzero;stroke:none"
             id="path38" /></g><g
           id="g40"
           transform="translate(104.738,100.5973)"><path
             d="m 0,0 -3.039,-1.074 c 0,0 8.734,-2.684 9.394,-2.707 0.664,-0.024 7.801,0.777 7.801,0.777 l 5.137,1.93 c 0,0 -6.813,1.851 -8.446,1.996 C 9.218,1.062 4.488,0.992 3.851,0.754 3.215,0.519 0,0 0,0"
             style="fill:#fe1361;fill-opacity:1;fill-rule:nonzero;stroke:none"
             id="path42" /></g><g
           id="g44"
           transform="translate(89.374,58.9093)"><path
             d="m 0,0 7.821,1.008 c 0,0 -0.926,-6.094 -1.156,-6.422 -0.231,-0.332 -5.583,-4.73 -6.204,-5.453 -0.625,-0.719 -2.629,-1.508 -3.414,-2.066 -0.789,-0.559 -4.484,-2.379 -4.484,-2.379 0,0 -0.047,3.922 0.445,5.367 0.492,1.445 2.789,4.199 4.137,5.352 C -1.511,-3.445 0,0 0,0"
             style="fill:#fe0469;fill-opacity:1;fill-rule:nonzero;stroke:none"
             id="path46" /></g><g
           id="g48"
           transform="translate(214.73,80.8942)"><path
             d="m 0,0 -4.836,-0.207 4.25,-9.981 15.48,-1.433 -4.054,6.628 z"
             style="fill:#0072ff;fill-opacity:1;fill-rule:nonzero;stroke:none"
             id="path50" /></g><g
           id="g52"
           transform="translate(174.238,97.9054)"><path
             d="m 0,0 -3.032,-0.914 3.508,-4.07 13.082,-5.078 4.985,0.058 -1.461,3.497 z"
             style="fill:#0073ff;fill-opacity:1;fill-rule:nonzero;stroke:none"
             id="path54" /></g></g></g><g
       id="g56"><g
         id="g58"><g
           id="g64"><g
             id="g66"><path
               d="m 124.105,130.456 -0.008,6.277 -0.07,-0.038 v -6.368 h 0.008 l -0.008,-0.011 v -0.004 h 0.105 l 35.832,-0.039 c 6.215,-0.012 11.242,-5.059 11.242,-11.274 v 0 -22.008 l 21.575,-9.09 c 0.164,0.809 0.32,1.618 0.422,2.446 v 0 c 0.175,1.379 0.293,2.773 0.293,4.2 v 0 24.465 c 0,18.526 -15.004,33.55 -33.532,33.578 v 0 l -23.488,0.022 z"
               style="fill:url(#linearGradient76);stroke:none"
               id="path78" /></g></g></g></g><g
       id="g80"><g
         id="g82"><g
           id="g88"><g
             id="g90"><path
               d="m 101.699,99.523 v -4.976 c 0,-8.169 2.933,-15.649 7.797,-21.47 v 0 c 6.152,-7.367 15.398,-12.061 25.734,-12.061 v 0 h 24.734 c 16.223,0 29.727,11.569 32.817,26.885 v 0 l -21.575,9.09 v -2.449 c 0,-6.207 -5.031,-11.238 -11.242,-11.238 v 0 H 135.23 c -4.492,0 -8.34,2.652 -10.141,6.461 v 0 c -0.687,1.454 -1.101,3.062 -1.101,4.782 v 0 l 0.043,4.976 z"
               style="fill:url(#linearGradient104);stroke:none"
               id="path106" /></g></g></g></g><g
       id="g108"><g
         id="g110"><g
           id="g116"><g
             id="g118"><path
               d="m 101.812,193.279 -0.066,-22.295 h 0.066 v -31.211 l -0.113,-30.067 V 99.523 h 22.332 l 0.039,4.774 -0.043,24.163 v 8.235 l 0.07,0.038 -0.027,15.891 v 40.655 z"
               style="fill:url(#linearGradient124);stroke:none"
               id="path126" /></g></g></g></g><g
       id="g128"><g
         id="g130"><g
           id="g136"><g
             id="g138"><path
               d="m 159.964,42.55 h -24.14 c -15.371,0 -29.141,6.734 -38.629,17.367 v 0 L 81.937,43.597 c 13.516,-14.34 32.629,-23.34 53.887,-23.34 v 0 h 24.14 c 32.11,0 59.367,20.457 69.66,49.016 v 0 l -19.73,11.414 C 203.89,58.719 183.839,42.55 159.964,42.55"
               style="fill:url(#linearGradient150);stroke:none"
               id="path152" /></g></g></g></g><g
       id="g154"><g
         id="g156"><g
           id="g162"><g
             id="g164"><path
               d="M 61.714,155.05 V 94.366 c 0,-19.671 7.719,-37.504 20.223,-50.769 v 0 l 15.258,16.32 C 89.019,69.078 84.007,81.124 84.007,94.366 v 0 60.684 c -3.334,-0.007 -6.668,-0.002 -10.003,0.003 v 0 c -2.2,0.004 -4.402,0.007 -6.602,0.007 v 0 c -1.896,0 -3.793,-0.003 -5.688,-0.01"
               style="fill:url(#linearGradient170);stroke:none"
               id="path172" /></g></g></g></g><g
       id="g174"><g
         id="g176"><g
           id="g182"><g
             id="g184"><path
               d="m 159.092,193.357 -12.374,-22.29 h 13.246 c 28.617,0 51.817,-23.201 51.817,-51.818 v 0 -24.883 c 0,-4.742 -0.692,-9.311 -1.887,-13.679 v 0 l 19.73,-11.414 c 2.829,7.847 4.45,16.274 4.45,25.093 v 0 24.883 c 0,40.758 -32.903,73.83 -73.596,74.108 v 0 z"
               style="fill:url(#linearGradient190);stroke:none"
               id="path192" /></g></g></g></g><g
       id="g194"><g
         id="g196"
         clip-path="url(#clipPath200)"><g
           id="g202"
           transform="translate(51.382,205.8165)"><path
             d="M 0,0 V -32.754 H 32.754 C 25.949,-20.075 16.602,-8.485 0,0"
             style="fill:#fe3a4d;fill-opacity:1;fill-rule:nonzero;stroke:none"
             id="path204" /></g><g
           id="g206"
           transform="translate(51.382,205.8165)"><path
             d="M 0,0 32.754,-32.754 V 0 Z"
             style="fill:#ff7721;fill-opacity:1;fill-rule:nonzero;stroke:none"
             id="path208" /></g><g
           id="g210"
           transform="translate(22.558,210.7101)"><path
             d="M 0,0 V -20.789 H 20.789 C 17.578,-11.332 10.242,-4.68 0,0"
             style="fill:#a13bff;fill-opacity:1;fill-rule:nonzero;stroke:none"
             id="path212" /></g><g
           id="g214"
           transform="translate(22.558,210.7101)"><path
             d="M 0,0 20.789,-20.789 V 0 Z"
             style="fill:#da24ea;fill-opacity:1;fill-rule:nonzero;stroke:none"
             id="path216" /></g><g
           id="g218"
           transform="translate(43.769,230.8312)"><path
             d="M 0,0 V -12.629 H 12.629 C 10.723,-7.269 7.496,-2.566 0,0"
             style="fill:#0083ff;fill-opacity:1;fill-rule:nonzero;stroke:none"
             id="path220" /></g><g
           id="g222"
           transform="translate(43.769,230.8312)"><path
             d="M 0,0 12.629,-12.629 V 0 Z"
             style="fill:#00c2ff;fill-opacity:1;fill-rule:nonzero;stroke:none"
             id="path224" /></g></g></g></g></svg>
